<?xml version="1.0" standalone="no"?>
<!DOCTYPE svg PUBLIC "-//W3C//DTD SVG 20010904//EN"
 "http://www.w3.org/TR/2001/REC-SVG-20010904/DTD/svg10.dtd">
<svg version="1.0" xmlns="http://www.w3.org/2000/svg"
 width="517.000000pt" height="517.000000pt" viewBox="0 0 517.000000 517.000000"
 preserveAspectRatio="xMidYMid meet">
<metadata>
Created by potrace 1.16, written by Peter Selinger 2001-2019
</metadata>
<g transform="translate(0.000000,517.000000) scale(0.100000,-0.100000)"
fill="#000000" stroke="none">
<path d="M0 2585 l0 -2585 2585 0 2585 0 0 2585 0 2585 -2585 0 -2585 0 0
-2585z m2810 2111 c116 -24 169 -34 245 -47 99 -15 195 -41 320 -85 39 -14 87
-29 107 -35 67 -16 230 -102 317 -165 273 -199 476 -439 600 -709 18 -38 36
-77 41 -86 24 -46 85 -204 105 -274 39 -132 89 -455 99 -630 9 -166 -31 -450
-100 -718 -19 -74 -101 -256 -154 -342 -22 -36 -40 -67 -40 -69 0 -14 -125
-204 -177 -271 -108 -135 -164 -193 -283 -289 -212 -171 -334 -235 -585 -306
-213 -61 -304 -67 -850 -56 -411 9 -642 70 -910 241 -77 49 -331 289 -417 395
-222 271 -305 408 -371 615 -71 220 -85 280 -98 430 -35 410 36 786 233 1235
106 242 164 347 228 410 14 14 43 50 65 79 126 166 232 263 430 392 196 128
269 160 367 160 78 0 111 11 167 58 41 34 61 43 142 60 52 11 110 22 129 25
68 8 316 -3 390 -18z"/>
<path d="M2578 4693 c7 -3 16 -2 19 1 4 3 -2 6 -13 5 -11 0 -14 -3 -6 -6z"/>
<path d="M2473 4678 c2 -7 7 -13 12 -13 5 0 10 6 13 13 2 6 -4 12 -13 12 -9 0
-15 -6 -12 -12z"/>
<path d="M2350 4655 c-7 -8 -19 -15 -26 -15 -8 0 -14 -4 -14 -10 0 -5 11 -10
25 -10 30 0 101 28 92 36 -3 3 -14 1 -25 -5 -31 -17 -47 -14 -32 4 7 8 8 15 2
15 -5 0 -15 -7 -22 -15z"/>
<path d="M2563 4655 c5 -14 43 -18 63 -7 14 8 8 10 -24 14 -26 2 -41 0 -39 -7z"/>
<path d="M2495 4643 c-43 -9 -49 -13 -37 -25 9 -9 22 -8 52 2 61 20 50 38 -15
23z"/>
<path d="M2633 4629 c-45 -13 -41 -18 7 -12 42 6 57 -11 23 -24 -22 -8 -43
-35 -37 -45 3 -5 -8 -8 -25 -8 -16 0 -41 -4 -55 -10 -43 -16 -41 8 5 51 l42
39 -27 0 c-20 0 -27 -4 -23 -14 4 -11 -10 -17 -57 -25 -34 -6 -70 -11 -79 -11
-9 0 -17 -5 -17 -11 0 -7 11 -9 28 -6 15 3 37 0 50 -7 19 -10 13 -12 -45 -10
-38 0 -77 -3 -88 -7 -11 -4 -51 -11 -90 -15 -52 -5 -64 -9 -45 -14 21 -6 22
-8 8 -15 -9 -4 -22 -4 -28 0 -6 4 -18 -1 -25 -11 -9 -12 -14 -14 -15 -6 0 10
-5 10 -20 2 -22 -12 -27 -36 -7 -42 6 -3 -2 -5 -18 -5 -17 0 -57 -11 -88 -26
-31 -14 -57 -21 -57 -15 0 13 -49 2 -70 -16 -34 -29 -67 -27 -38 2 8 8 2 10
-27 5 -44 -7 -105 -35 -70 -32 11 1 29 0 40 -1 16 -1 14 -4 -9 -12 -16 -6 -45
-21 -64 -34 -19 -13 -42 -24 -50 -24 -9 0 -29 -12 -45 -27 -22 -20 -28 -23
-24 -10 4 11 3 16 -3 12 -6 -3 -10 -15 -10 -26 0 -11 -4 -18 -9 -14 -13 7 -59
-14 -65 -31 -3 -9 2 -14 15 -14 11 0 22 7 25 15 4 10 14 13 29 9 17 -4 28 1
44 24 11 16 30 32 41 35 37 9 21 -17 -31 -53 -28 -19 -63 -48 -77 -65 -15 -18
-27 -25 -29 -18 -5 15 -42 1 -90 -34 -35 -26 -46 -57 -15 -46 15 6 16 5 2 -13
-8 -10 -15 -21 -17 -23 -6 -11 -29 27 -25 42 4 16 2 18 -15 9 -11 -6 -25 -18
-33 -26 -11 -14 -9 -16 16 -16 l29 0 -25 -19 c-13 -11 -28 -17 -33 -14 -12 7
-47 -27 -47 -47 0 -9 -13 -29 -30 -45 -34 -33 -38 -51 -12 -58 13 -3 10 -8
-14 -17 -41 -17 -71 -65 -54 -85 10 -12 6 -22 -19 -54 -17 -21 -31 -45 -31
-53 0 -9 -11 -27 -25 -42 -14 -15 -25 -38 -25 -52 0 -13 -4 -24 -10 -24 -5 0
-7 6 -4 14 3 8 1 17 -5 20 -13 8 -31 -25 -31 -56 1 -21 2 -22 14 -5 7 9 17 17
21 17 4 0 3 -6 -3 -12 -5 -7 -13 -27 -16 -45 -4 -17 -14 -34 -22 -37 -8 -3
-14 -14 -14 -25 0 -11 -11 -32 -24 -48 -29 -34 -42 -73 -25 -73 8 0 8 -4 -1
-15 -10 -12 -10 -21 -1 -41 9 -20 8 -28 -4 -40 -13 -14 -15 -13 -16 3 -1 10
-1 22 0 27 1 4 -1 17 -4 28 -5 15 -10 17 -21 7 -19 -15 -18 -49 1 -49 18 0 19
-12 4 -27 -5 -5 -12 -30 -15 -54 -8 -88 -34 -197 -63 -272 -6 -16 -11 -38 -11
-50 1 -21 1 -21 16 3 15 24 15 23 9 -25 -4 -27 -8 -86 -11 -130 -2 -44 -8
-102 -13 -130 -6 -33 -5 -58 2 -75 10 -22 12 -17 17 42 3 36 9 70 14 75 5 4 6
-17 2 -52 -7 -65 1 -128 15 -119 5 3 9 1 9 -4 0 -6 -7 -12 -15 -16 -20 -7 -19
-40 1 -72 9 -13 14 -27 11 -30 -11 -11 -39 66 -33 90 5 22 -14 53 -26 41 -7
-7 -1 -226 7 -233 3 -4 10 -1 14 6 5 8 8 2 8 -17 0 -34 21 -91 34 -91 5 0 9 5
9 10 0 6 4 10 8 10 5 0 8 -21 8 -47 0 -31 10 -68 27 -104 15 -31 27 -61 27
-67 0 -6 8 -17 18 -24 19 -13 42 -50 42 -65 0 -4 -9 3 -20 17 -10 14 -22 22
-25 18 -10 -10 75 -158 90 -158 15 0 21 -15 30 -70 7 -42 13 -49 25 -30 7 11
11 8 19 -13 6 -16 11 -32 11 -37 0 -4 15 -26 34 -49 18 -22 42 -60 52 -84 19
-46 48 -74 59 -57 3 5 -3 18 -15 30 -11 11 -20 26 -20 33 0 7 -5 18 -12 25 -7
7 -8 12 -2 12 5 0 17 -13 26 -28 9 -15 38 -50 64 -77 26 -28 48 -54 49 -60 1
-5 3 -15 3 -22 1 -6 10 -14 20 -17 9 -3 26 -20 37 -37 11 -17 38 -39 61 -50
23 -11 63 -40 89 -64 26 -25 53 -45 60 -45 7 0 32 -16 55 -35 23 -19 45 -35
48 -36 4 0 21 -2 37 -5 17 -2 45 -4 63 -4 21 1 31 -3 27 -10 -3 -5 -19 -10
-36 -10 -34 0 -35 -3 -12 -30 10 -12 30 -20 48 -20 16 0 37 -5 45 -11 13 -9
12 -10 -2 -5 -10 3 -18 2 -18 -3 0 -10 49 -21 91 -21 19 0 29 5 29 15 0 19
-36 38 -59 30 -24 -7 -78 36 -67 54 6 9 12 9 24 -3 10 -8 45 -23 79 -33 35
-10 63 -21 63 -25 0 -5 -4 -8 -10 -8 -5 0 -10 -4 -10 -9 0 -14 127 -64 145
-57 27 10 5 28 -26 21 -21 -5 -31 -2 -35 9 -3 9 -12 16 -19 16 -8 0 -16 4 -19
9 -9 13 81 3 112 -13 38 -20 138 -33 128 -17 -4 6 -22 11 -41 11 -19 0 -37 5
-40 10 -3 6 -17 10 -31 10 -14 0 -23 4 -20 9 8 12 95 -5 142 -28 21 -11 41
-16 44 -11 8 11 117 11 189 -2 49 -8 66 -8 69 0 2 7 26 12 57 12 62 0 85 -7
85 -25 0 -11 9 -11 48 -1 49 13 122 10 122 -5 0 -5 5 -9 12 -9 6 0 8 3 5 7 -9
8 48 33 72 32 11 0 10 -3 -6 -11 -30 -14 -29 -28 0 -28 28 0 117 29 136 44 11
9 9 12 -15 18 -21 4 -14 6 22 5 29 -1 50 -5 47 -10 -7 -11 5 -8 40 9 21 12 32
13 35 5 5 -14 78 -15 87 -1 11 18 23 11 18 -10 -5 -19 -3 -19 22 -10 15 6 47
31 73 58 25 26 40 39 33 29 -24 -31 24 -21 57 13 17 16 35 30 40 30 5 0 15 7
23 16 7 9 30 23 51 31 21 8 38 19 38 23 0 7 84 73 175 138 18 13 46 43 61 68
15 24 34 44 41 44 7 0 16 12 19 28 8 33 66 100 82 94 9 -3 54 68 57 88 0 3 11
20 25 38 16 22 26 28 31 20 8 -12 29 29 29 56 0 8 7 19 15 26 12 10 15 10 15
-1 0 -8 9 -4 20 11 11 14 18 33 16 43 -6 23 31 67 49 60 10 -3 13 5 12 30 l-2
36 -22 -21 c-36 -34 -27 -8 18 51 24 32 47 76 55 108 8 30 23 73 33 96 19 42
19 63 -1 51 -7 -4 -8 -2 -4 5 4 6 12 9 17 6 5 -4 10 4 11 17 3 57 7 85 13 111
5 17 3 27 -4 27 -7 0 -3 21 10 56 13 35 19 67 15 85 -7 34 1 38 13 7 6 -15 8
5 5 57 -2 44 -1 74 2 68 10 -22 26 -14 22 10 -2 12 -8 21 -13 20 -6 -1 -10 34
-10 85 0 48 -4 98 -9 111 -6 18 -5 22 5 16 9 -6 11 8 7 66 -3 41 -4 66 -1 55
4 -17 6 -16 17 5 15 29 9 82 -6 55 -5 -9 -6 -21 -3 -26 3 -6 2 -10 -4 -10 -5
0 -11 21 -13 48 -2 26 -7 46 -13 45 -6 -1 -10 28 -11 68 -1 38 2 66 7 64 15
-10 17 10 3 35 l-13 25 -1 -25 -1 -25 -13 25 c-7 14 -16 49 -20 78 -9 68 -16
88 -27 71 -5 -9 -10 -4 -15 17 -4 16 -12 32 -18 36 -7 5 -5 8 5 8 19 0 23 47
7 67 -6 7 -8 23 -4 36 5 22 3 24 -21 19 -23 -4 -25 -2 -20 18 9 34 -43 167
-62 156 -3 -2 -17 14 -31 35 -13 21 -27 39 -31 39 -4 0 -5 8 -2 18 2 10 -5 26
-16 36 -12 11 -21 24 -21 29 0 6 -8 19 -17 30 -10 11 -13 17 -6 14 29 -17 20
16 -14 55 -21 24 -25 32 -11 19 25 -22 26 -22 21 -3 -2 11 -19 33 -35 48 -24
22 -29 24 -24 10 6 -17 4 -17 -11 -5 -10 7 -28 22 -40 33 -44 38 -23 -4 25
-49 37 -36 44 -47 33 -54 -11 -7 -25 4 -54 42 -59 76 -118 137 -149 153 -29
15 -37 7 -16 -14 6 -6 9 -14 6 -18 -4 -3 -15 7 -25 23 -10 15 -23 34 -30 41
-7 7 -13 15 -13 17 0 9 74 -15 81 -27 5 -7 9 -8 9 -3 0 15 -105 136 -137 156
-30 20 -58 25 -48 9 10 -16 -5 -12 -36 11 -16 11 -29 16 -29 10 0 -5 14 -18
30 -28 17 -9 33 -25 36 -35 3 -10 12 -18 20 -18 19 0 18 16 -2 24 -9 4 -14 9
-11 12 3 4 20 -4 36 -16 24 -16 31 -29 31 -53 -1 -29 -2 -31 -14 -14 -8 10
-20 20 -28 21 -29 6 -53 22 -53 35 0 8 -7 17 -15 21 -83 39 -108 55 -97 62 15
9 11 12 -35 31 -40 17 -51 37 -20 37 9 1 0 9 -22 20 -21 11 -44 24 -52 31 -8
6 -21 8 -31 5 -14 -6 -76 18 -143 55 -8 5 -28 16 -44 25 -16 9 -52 18 -80 21
-45 5 -49 3 -37 -11 11 -13 11 -16 -1 -16 -8 0 -18 4 -24 10 -5 5 -43 14 -84
21 -41 6 -80 15 -87 21 -7 5 -21 7 -31 4 -14 -5 -21 -1 -24 12 -4 15 -13 18
-51 16 -30 -2 -50 2 -57 12 -8 8 -30 14 -56 14 -24 0 -44 5 -44 10 0 12 -33
12 -77 -1z m132 -58 c16 -6 13 -9 -17 -14 -20 -3 -47 -3 -60 1 -22 6 -22 7 7
13 40 9 47 9 70 0z m145 -1 c0 -13 -11 -13 -30 0 -12 8 -11 10 8 10 12 0 22
-4 22 -10z m366 -72 c19 -21 19 -21 -6 -15 -14 4 -30 7 -37 7 -7 0 -10 7 -7
15 9 21 28 19 50 -7z m51 -34 c-3 -3 -12 -4 -19 -1 -8 3 -5 6 6 6 11 1 17 -2
13 -5z m191 -75 c-7 -4 -16 -3 -20 4 -11 18 2 29 18 16 12 -10 12 -14 2 -20z
m-1886 -241 c-7 -7 -12 -8 -12 -2 0 14 12 26 19 19 2 -3 -1 -11 -7 -17z m-322
-227 c-6 -12 -16 -19 -21 -15 -6 4 -3 13 8 24 23 22 28 18 13 -9z m2914 -161
c12 -26 12 -30 0 -30 -8 0 -14 6 -14 14 0 8 -3 21 -6 30 -11 28 4 17 20 -14z
m-3118 -218 c-18 -16 -18 -16 -6 6 6 13 14 21 18 18 3 -4 -2 -14 -12 -24z
m-119 -264 c-3 -7 -5 -2 -5 12 0 14 2 19 5 13 2 -7 2 -19 0 -25z m3539 -415
c-10 -10 -19 5 -10 18 6 11 8 11 12 0 2 -7 1 -15 -2 -18z m-9 -45 c-3 -8 -6
-5 -6 6 -1 11 2 17 5 13 3 -3 4 -12 1 -19z m-3647 3 c0 -6 -4 -13 -10 -16 -5
-3 -10 1 -10 9 0 9 5 16 10 16 6 0 10 -4 10 -9z m4 -644 c4 -19 3 -26 -4 -22
-5 3 -10 18 -10 32 0 32 5 28 14 -10z m36 -72 c0 -5 -5 -3 -10 5 -5 8 -10 20
-10 25 0 6 5 3 10 -5 5 -8 10 -19 10 -25z m3420 -365 c0 -5 -5 -10 -11 -10 -5
0 -7 5 -4 10 3 6 8 10 11 10 2 0 4 -4 4 -10z m-40 -109 c0 -5 -7 -11 -15 -15
-9 -3 -15 0 -15 9 0 8 7 15 15 15 8 0 15 -4 15 -9z m-2677 -605 c4 -10 1 -13
-9 -9 -15 6 -19 23 -5 23 5 0 11 -7 14 -14z m1852 -196 c-3 -5 -15 -10 -26
-10 -10 0 -19 5 -19 10 0 6 12 10 26 10 14 0 23 -4 19 -10z m-530 -29 c-6 -5
-32 -12 -60 -15 l-50 -6 45 14 c55 17 78 19 65 7z"/>
<path d="M2270 4620 c0 -5 4 -10 9 -10 6 0 13 5 16 10 3 6 -1 10 -9 10 -9 0
-16 -4 -16 -10z"/>
<path d="M2200 4590 c0 -5 4 -10 9 -10 6 0 13 5 16 10 3 6 -1 10 -9 10 -9 0
-16 -4 -16 -10z"/>
<path d="M2145 4580 c-3 -5 -2 -10 4 -10 5 0 13 5 16 10 3 6 2 10 -4 10 -5 0
-13 -4 -16 -10z"/>
<path d="M3040 4580 c8 -5 22 -9 30 -9 10 0 8 3 -5 9 -27 12 -43 12 -25 0z"/>
<path d="M3005 4570 c-3 -5 1 -10 10 -10 9 0 13 5 10 10 -3 6 -8 10 -10 10 -2
0 -7 -4 -10 -10z"/>
<path d="M3135 4570 c3 -5 15 -10 26 -10 11 0 17 5 14 10 -3 6 -15 10 -26 10
-11 0 -17 -4 -14 -10z"/>
<path d="M3225 4560 c3 -5 11 -10 16 -10 6 0 7 5 4 10 -3 6 -11 10 -16 10 -6
0 -7 -4 -4 -10z"/>
<path d="M2300 4550 c0 -13 20 -13 40 0 12 8 9 10 -12 10 -16 0 -28 -4 -28
-10z"/>
<path d="M2090 4500 c-8 -5 -11 -12 -8 -16 10 -9 38 3 38 16 0 12 -10 13 -30
0z"/>
<path d="M3360 4501 c0 -5 7 -12 16 -15 24 -9 28 -7 14 9 -14 17 -30 20 -30 6z"/>
<path d="M2014 4459 c-3 -6 -25 -19 -48 -29 l-41 -19 35 4 c49 5 86 21 93 39
7 19 -28 23 -39 5z"/>
<path d="M1888 4409 c-10 -5 -18 -14 -18 -19 0 -13 38 0 44 16 6 16 -2 17 -26
3z"/>
<path d="M3612 4361 c14 -22 48 -35 61 -22 11 11 -31 41 -55 41 -15 0 -16 -3
-6 -19z"/>
<path d="M3940 4171 c0 -5 5 -13 10 -16 6 -3 10 -2 10 4 0 5 -4 13 -10 16 -5
3 -10 2 -10 -4z"/>
<path d="M1436 4124 c-4 -10 -1 -14 6 -12 15 5 23 28 10 28 -5 0 -13 -7 -16
-16z"/>
<path d="M4000 4112 c0 -16 32 -52 46 -52 18 0 18 10 -2 38 -14 21 -44 31 -44
14z"/>
<path d="M4020 4041 c0 -5 7 -12 16 -15 14 -5 15 -4 4 9 -14 17 -20 19 -20 6z"/>
<path d="M1200 3890 c0 -5 5 -10 10 -10 6 0 10 5 10 10 0 6 -4 10 -10 10 -5 0
-10 -4 -10 -10z"/>
<path d="M4241 3803 c7 -12 15 -20 18 -17 3 2 -3 12 -13 22 -17 16 -18 16 -5
-5z"/>
<path d="M1071 3702 c-7 -13 -11 -26 -8 -28 8 -8 29 25 25 38 -3 8 -9 4 -17
-10z"/>
<path d="M1110 3689 c0 -11 5 -17 10 -14 6 3 10 13 10 21 0 8 -4 14 -10 14 -5
0 -10 -9 -10 -21z"/>
<path d="M981 3524 c0 -11 3 -14 6 -6 3 7 2 16 -1 19 -3 4 -6 -2 -5 -13z"/>
<path d="M920 3379 c0 -5 5 -7 10 -4 6 3 10 8 10 11 0 2 -4 4 -10 4 -5 0 -10
-5 -10 -11z"/>
<path d="M4460 3346 c0 -9 5 -16 10 -16 6 0 10 4 10 9 0 6 -4 13 -10 16 -5 3
-10 -1 -10 -9z"/>
<path d="M4490 3241 c0 -12 5 -21 10 -21 6 0 10 6 10 14 0 8 -4 18 -10 21 -5
3 -10 -3 -10 -14z"/>
<path d="M845 3129 c-4 -11 -4 -23 -2 -26 9 -8 27 7 27 22 0 23 -18 27 -25 4z"/>
<path d="M837 2994 c-11 -11 -8 -44 3 -44 15 0 24 30 13 41 -5 5 -12 6 -16 3z"/>
<path d="M4551 2964 c0 -11 3 -14 6 -6 3 7 2 16 -1 19 -3 4 -6 -2 -5 -13z"/>
<path d="M790 2910 c0 -19 3 -21 12 -12 9 9 9 15 0 24 -9 9 -12 7 -12 -12z"/>
<path d="M797 2703 c-2 -5 -5 -35 -6 -68 -2 -33 -3 -73 -4 -89 -1 -16 4 -31
11 -33 9 -4 12 20 12 96 0 94 -3 112 -13 94z"/>
<path d="M4535 2228 c-3 -18 -9 -41 -11 -50 -3 -10 -1 -18 4 -18 5 0 12 21 16
47 7 54 1 70 -9 21z"/>
<path d="M860 1963 c0 -26 18 -78 26 -70 3 3 -1 25 -10 49 -9 27 -15 35 -16
21z"/>
<path d="M1050 1580 c0 -5 5 -10 11 -10 5 0 7 5 4 10 -3 6 -8 10 -11 10 -2 0
-4 -4 -4 -10z"/>
<path d="M4215 1470 c-3 -5 -1 -10 4 -10 6 0 11 5 11 10 0 6 -2 10 -4 10 -3 0
-8 -4 -11 -10z"/>
<path d="M4180 1395 c0 -8 5 -15 10 -15 6 0 10 7 10 15 0 8 -4 15 -10 15 -5 0
-10 -7 -10 -15z"/>
<path d="M4087 1283 c-10 -9 -9 -23 2 -23 5 0 11 7 15 15 5 15 -5 20 -17 8z"/>
<path d="M1566 991 c-3 -5 1 -14 9 -21 12 -10 15 -10 15 3 0 19 -16 31 -24 18z"/>
<path d="M3676 934 c-5 -12 -2 -15 10 -10 8 3 18 6 20 6 2 0 4 5 4 10 0 16
-27 11 -34 -6z"/>
<path d="M1700 880 c0 -11 40 -34 47 -26 3 3 3 12 0 21 -7 16 -47 21 -47 5z"/>
<path d="M3501 826 c-10 -12 -8 -13 9 -9 25 7 37 23 17 23 -8 0 -20 -6 -26
-14z"/>
<path d="M1860 783 c1 -11 80 -47 87 -39 3 3 -6 10 -21 16 -15 5 -36 15 -47
20 -10 6 -19 7 -19 3z"/>
<path d="M3380 760 c-13 -8 -12 -10 3 -10 9 0 17 5 17 10 0 12 -1 12 -20 0z"/>
<path d="M2665 750 c-3 -5 1 -10 9 -10 9 0 16 5 16 10 0 6 -4 10 -9 10 -6 0
-13 -4 -16 -10z"/>
<path d="M3170 750 c0 -5 4 -10 9 -10 6 0 13 5 16 10 3 6 -1 10 -9 10 -9 0
-16 -4 -16 -10z"/>
<path d="M2535 681 c-14 -6 -3 -10 35 -14 76 -9 106 -9 95 2 -14 12 -106 20
-130 12z"/>
</g>
</svg>
